# File created by Blade
# Date/Time:  Thu Jan 22 19:01:23 2015
#---------------------------------------------------------
:version 1.10
:name HOM
:units
  mass 1.0
  length 1.000000
  angle deg
:documentation
     Acclaim Skeleton File
:root
   axis xyz
   order TX TY TZ RX RY RZ
   position 0.000000 0.000000 0.000000
   orientation 0 0 0
:bonedata
   begin
      id 1
      name RightUpLeg_dum
      direction -1.000000 0.000000 0.000000
      length 4.478084
      axis 0.0 0.0 0.0 xyz
   end
   begin
      id 2
      name LeftUpLeg_dum
      direction 1.000000 0.000000 0.000000
      length 4.478084
      axis 0.0 0.0 0.0 xyz
   end
   begin
      id 3
      name Spine_dum
      direction 0.000000 1.000000 0.000000
      length 6.068208
      axis 0.0 0.0 0.0 xyz
   end
   begin
      id 4
      name RightUpLeg
      direction 0.000000 -1.000000 0.000000
      length 16.405774
      axis 0.0 0.0 0.0 xyz
      dof rx ry rz
   end
   begin
      id 5
      name RightLeg
      direction 0.000000 -1.000000 0.000000
      length 14.644143
      axis 0.0 0.0 0.0 xyz
      dof rx ry rz
   end
   begin
      id 6
      name RightFoot
      direction 0.000000 -0.258819 0.965926
      length 5.806150
      axis 15.0 0.0 0.0 xyz
      dof rx ry rz
   end
   begin
      id 7
      name RightToeBase
      direction 0.000000 0.000000 1.000000
      length 2.952750
      axis 0.0 0.0 0.0 xyz
      dof rx ry rz
   end
   begin
      id 8
      name LeftUpLeg
      direction 0.000000 -1.000000 0.000000
      length 16.405774
      axis 0.0 0.0 0.0 xyz
      dof rx ry rz
   end
   begin
      id 9
      name LeftLeg
      direction 0.000000 -1.000000 0.000000
      length 14.644143
      axis 0.0 0.0 0.0 xyz
      dof rx ry rz
   end
   begin
      id 10
      name LeftFoot
      direction 0.000000 -0.258819 0.965926
      length 5.806150
      axis 15.0 0.0 0.0 xyz
      dof rx ry rz
   end
   begin
      id 11
      name LeftToeBase
      direction 0.000000 0.000000 1.000000
      length 2.952750
      axis 0.0 0.0 0.0 xyz
      dof rx ry rz
   end
   begin
      id 12
      name Spine
      direction 0.000000 1.000000 0.000000
      length 0.000000
      axis 0.0 0.0 0.0 xyz
      dof rx ry rz
   end
   begin
      id 13
      name Spine_dum1
      direction 0.000000 1.000000 0.000000
      length 10.013923
      axis 0.0 0.0 0.0 xyz
   end
   begin
      id 14
      name Spine_dum2
      direction 0.000000 1.000000 0.000000
      length 10.013923
      axis 0.0 0.0 0.0 xyz
   end
   begin
      id 15
      name Spine_dum3
      direction 0.000000 1.000000 0.000000
      length 15.777476
      axis 0.0 0.0 0.0 xyz
   end
   begin
      id 16
      name RightShoulder
      direction -1.000000 0.000000 0.000000
      length 7.190220
      axis 0.0 0.0 90.0 xyz
      dof rx ry rz
   end
   begin
      id 17
      name RightArm
      direction -1.000000 0.000000 0.000000
      length 10.177469
      axis 0.0 0.0 90.0 xyz
      dof rx ry rz
   end
   begin
      id 18
      name RightForeArm
      direction -1.000000 0.000000 0.000000
      length 8.392114
      axis 0.0 0.0 90.0 xyz
      dof ry rz rx
   end
   begin
      id 19
      name RightHand
      direction -1.000000 0.000000 0.000000
      length 0.000000
      axis 0.0 0.0 90.0 xyz
      dof rx ry rz
   end
   begin
      id 20
      name RightHand_dum1
      direction -1.000000 0.000000 0.000000
      length 3.937000
      axis 0.0 0.0 90.0 xyz
   end
   begin
      id 21
      name RightHand_dum2
      direction 0.000000 0.000000 0.000000
      length 0.000000
      axis 0.0 0.0 90.0 xyz
   end
   begin
      id 22
      name RightHandThumb1
      direction 0.000000 0.000000 1.000000
      length 3.937000
      axis 0.0 0.0 90.0 xyz
      dof rx rz ry
   end
   begin
      id 23
      name LeftShoulder
      direction 1.000000 0.000000 0.000000
      length 7.190220
      axis 0.0 0.0 -90.0 xyz
      dof rx ry rz
   end
   begin
      id 24
      name LeftArm
      direction 1.000000 0.000000 0.000000
      length 10.177469
      axis 0.0 0.0 -90.0 xyz
      dof rx ry rz
   end
   begin
      id 25
      name LeftForeArm
      direction 1.000000 0.000000 0.000000
      length 8.392114
      axis 0.0 0.0 -90.0 xyz
      dof ry rz rx
   end
   begin
      id 26
      name LeftHand
      direction 1.000000 0.000000 0.000000
      length 0.000000
      axis 0.0 0.0 -90.0 xyz
      dof rx ry rz
   end
   begin
      id 27
      name LeftHand_dum1
      direction 1.000000 0.000000 0.000000
      length 3.937000
      axis 0.0 0.0 -90.0 xyz
   end
   begin
      id 28
      name LeftHand_dum2
      direction 0.000000 0.000000 0.000000
      length 0.000000
      axis 0.0 0.0 -90.0 xyz
   end
   begin
      id 29
      name LeftHandThumb1
      direction 0.000000 0.000000 1.000000
      length 3.937000
      axis 0.0 0.0 -90.0 xyz
      dof rx rz ry
   end
   begin
      id 30
      name Head
      direction 0.000000 1.000000 0.000000
      length 4.527550
      axis 0.0 0.0 0.0 xyz
      dof rx ry rz
   end
:hierarchy
   begin
      root RightUpLeg_dum LeftUpLeg_dum Spine_dum
      RightUpLeg_dum RightUpLeg
      LeftUpLeg_dum LeftUpLeg
      Spine_dum Spine
      RightUpLeg RightLeg
      RightLeg RightFoot
      RightFoot RightToeBase
      LeftUpLeg LeftLeg
      LeftLeg LeftFoot
      LeftFoot LeftToeBase
      Spine Spine_dum1 Spine_dum2 Spine_dum3
      Spine_dum1 RightShoulder
      Spine_dum2 LeftShoulder
      Spine_dum3 Head
      RightShoulder RightArm
      RightArm RightForeArm
      RightForeArm RightHand
      RightHand RightHand_dum1 RightHand_dum2
      RightHand_dum2 RightHandThumb1
      LeftShoulder LeftArm
      LeftArm LeftForeArm
      LeftForeArm LeftHand
      LeftHand LeftHand_dum1 LeftHand_dum2
      LeftHand_dum2 LeftHandThumb1
   end

# File created by Blade
# Date/Time:  Thu Jan 22 19:01:15 2015
# Frame Rate: 120.000 fps
#------------------------------------------------------
:FULLY-SPECIFIED
:DEGREES
99
root -2.870701 33.187606 -0.472711 7.522974 -1.590551 2.787688
RightUpLeg -0.907283 -7.646631 -2.055982
RightLeg -0.699705 -0.000000 0.000000
RightFoot -11.051085 -2.763105 3.809038
RightToeBase 5.779792 -0.000000 -0.000000
LeftUpLeg -1.315176 4.613185 0.838372
LeftLeg 1.245136 -0.000000 -0.000000
LeftFoot -10.121822 1.199356 -10.197936
LeftToeBase 7.350126 -0.000000 -0.000000
Spine -8.615320 -1.935204 -1.619914
RightShoulder -19.431633 -18.116301 -25.527318
RightArm 20.852111 29.199201 38.585020
RightForeArm -9.045465 -0.000000 10.248989
RightHand 6.312089 -0.000000 11.822264
RightHandThumb1 -24.326973 -0.000000 -32.862282
LeftShoulder -24.981299 8.285812 29.070944
LeftArm 15.291456 -27.446299 -34.821722
LeftForeArm 29.650400 -0.000000 2.471513
LeftHand -6.567485 -0.000000 -9.152644
LeftHandThumb1 -26.253704 0.000000 33.147579
Head -1.489957 3.877536 -0.276660
100
root -2.869070 33.187473 -0.472204 7.525226 -1.595078 2.786497
RightUpLeg -0.907239 -7.646096 -2.058503
RightLeg -0.705404 -0.000000 0.000000
RightFoot -11.047414 -2.767521 3.792725
RightToeBase 5.750765 -0.000000 -0.000000
LeftUpLeg -1.312291 4.625704 0.836008
LeftLeg 1.238886 -0.000000 -0.000000
LeftFoot -10.133284 1.206804 -10.146623
LeftToeBase 7.401710 -0.000000 -0.000000
Spine -8.612659 -1.931903 -1.617145
RightShoulder -19.436452 -18.123756 -25.523957
RightArm 20.853740 29.196579 38.593172
RightForeArm -9.073789 -0.000000 10.265080
RightHand 6.295915 -0.000000 11.809026
RightHandThumb1 -24.326973 -0.000000 -32.862282
LeftShoulder -24.985694 8.305891 29.065209
LeftArm 15.298143 -27.470947 -34.834741
LeftForeArm 29.666967 -0.000000 2.481941
LeftHand -6.607913 0.000000 -9.106535
LeftHandThumb1 -26.253704 0.000000 33.147579
Head -1.510281 3.871246 -0.284372
101
root -2.867136 33.187345 -0.472432 7.528499 -1.595802 2.789090
RightUpLeg -0.911885 -7.656053 -2.063085
RightLeg -0.707826 -0.000000 0.000000
RightFoot -11.029227 -2.734859 3.820064
RightToeBase 5.674032 -0.000000 -0.000000
LeftUpLeg -1.317079 4.624036 0.829633
LeftLeg 1.239926 -0.000000 -0.000000
LeftFoot -10.137585 1.206161 -10.147970
LeftToeBase 7.435185 -0.000000 -0.000000
Spine -8.608403 -1.935835 -1.616605
RightShoulder -19.445456 -18.134747 -25.521746
RightArm 20.871629 29.180606 38.601629
RightForeArm -9.063672 -0.000000 10.260576
RightHand 6.287588 -0.000000 11.826714
RightHandThumb1 -24.326973 -0.000000 -32.862282
LeftShoulder -24.996109 8.324264 29.056267
LeftArm 15.306425 -27.462655 -34.838905
LeftForeArm 29.639537 -0.000000 2.484339
LeftHand -6.621454 -0.000000 -9.078750
LeftHandThumb1 -26.253704 0.000000 33.147579
Head -1.531934 3.851645 -0.298995
102
root -2.864917 33.187280 -0.472546 7.532014 -1.595283 2.786079
RightUpLeg -0.915405 -7.660780 -2.062628
RightLeg -0.706215 -0.000000 0.000000
RightFoot -11.043805 -2.756436 3.798557
RightToeBase 5.759453 -0.000000 -0.000000
LeftUpLeg -1.318786 4.618003 0.829241
LeftLeg 1.234065 -0.000000 -0.000000
LeftFoot -10.141029 1.214128 -10.136804
LeftToeBase 7.413194 -0.000000 -0.000000
Spine -8.602576 -1.941164 -1.604241
RightShoulder -19.448444 -18.128253 -25.526696
RightArm 20.871940 29.169269 38.600018
RightForeArm -9.080936 0.000000 10.257991
RightHand 6.295370 -0.000000 11.845870
RightHandThumb1 -24.326973 -0.000000 -32.862282
LeftShoulder -24.999423 8.339523 29.037358
LeftArm 15.298310 -27.482623 -34.837839
LeftForeArm 29.637655 -0.000000 2.496713
LeftHand -6.620867 -0.000000 -9.067017
LeftHandThumb1 -26.253704 0.000000 33.147579
Head -1.559851 3.846283 -0.316357
103
root -2.862442 33.187065 -0.472333 7.537337 -1.602801 2.788967
RightUpLeg -0.918115 -7.652019 -2.067768
RightLeg -0.723508 -0.000000 0.000000
RightFoot -11.060863 -2.737744 3.843556
RightToeBase 5.593614 -0.000000 -0.000000
LeftUpLeg -1.318062 4.602362 0.821621
LeftLeg 1.226157 -0.000000 -0.000000
LeftFoot -10.127528 1.213851 -10.194653
LeftToeBase 7.370070 -0.000000 -0.000000
Spine -8.603739 -1.939347 -1.601875
RightShoulder -19.457405 -18.149621 -25.515829
RightArm 20.894966 29.175445 38.602032
RightForeArm -9.075100 0.000000 10.255144
RightHand 6.285958 -0.000000 11.827755
RightHandThumb1 -24.326973 -0.000000 -32.862282
LeftShoulder -25.011411 8.356487 29.034604
LeftArm 15.296498 -27.461234 -34.849700
LeftForeArm 29.633245 0.000000 2.509466
LeftHand -6.614301 -0.000000 -9.037641
LeftHandThumb1 -26.253704 0.000000 33.147579
Head -1.573472 3.838904 -0.330461
104
root -2.859802 33.186717 -0.472316 7.541135 -1.613082 2.793758
RightUpLeg -0.919705 -7.656540 -2.079072
RightLeg -0.727866 -0.000000 0.000000
RightFoot -11.028244 -2.725485 3.833879
RightToeBase 5.687529 -0.000000 -0.000000
LeftUpLeg -1.315705 4.612888 0.811170
LeftLeg 1.215492 -0.000000 -0.000000
LeftFoot -10.122280 1.212339 -10.193605
LeftToeBase 7.346033 -0.000000 -0.000000
Spine -8.601685 -1.931349 -1.602208
RightShoulder -19.465981 -18.159739 -25.515458
RightArm 20.909429 29.192961 38.619441
RightForeArm -9.094656 0.000000 10.260816
RightHand 6.255382 -0.000000 11.831409
RightHandThumb1 -24.326973 -0.000000 -32.862282
LeftShoulder -25.021111 8.357301 29.024270
LeftArm 15.291613 -27.460006 -34.853587
LeftForeArm 29.642608 -0.000000 2.525873
LeftHand -6.591008 -0.000000 -9.026213
LeftHandThumb1 -26.253704 0.000000 33.147579
Head -1.584644 3.819183 -0.341892
105
root -2.858773 33.186732 -0.472313 7.544578 -1.622527 2.788061
RightUpLeg -0.926074 -7.667626 -2.074273
RightLeg -0.732653 -0.000000 0.000000
RightFoot -11.039965 -2.677160 3.883222
RightToeBase 5.552818 -0.000000 -0.000000
LeftUpLeg -1.314354 4.618363 0.813966
LeftLeg 1.209112 -0.000000 -0.000000
LeftFoot -10.118359 1.213088 -10.200454
LeftToeBase 7.328181 -0.000000 -0.000000
Spine -8.599902 -1.916409 -1.593924
RightShoulder -19.477095 -18.151148 -25.510364
RightArm 20.897177 29.178627 38.603933
RightForeArm -9.086384 -0.000000 10.264929
RightHand 6.268513 -0.000000 11.825243
RightHandThumb1 -24.326973 -0.000000 -32.862282
LeftShoulder -25.027363 8.377065 29.009701
LeftArm 15.301898 -27.482085 -34.877206
LeftForeArm 29.644892 -0.000000 2.547806
LeftHand -6.600300 -0.000000 -9.015477
LeftHandThumb1 -26.253704 0.000000 33.147579
Head -1.592486 3.791075 -0.354650
106
root -2.856069 33.186462 -0.471970 7.548793 -1.635804 2.792920
RightUpLeg -0.932477 -7.641171 -2.085813
RightLeg -0.725972 -0.000000 0.000000
RightFoot -11.032209 -2.722051 3.837224
RightToeBase 5.718608 -0.000000 -0.000000
LeftUpLeg -1.309660 4.630369 0.801688
LeftLeg 1.195077 -0.000000 -0.000000
LeftFoot -10.118930 1.221103 -10.184255
LeftToeBase 7.364324 -0.000000 -0.000000
Spine -8.599696 -1.918761 -1.591500
RightShoulder -19.476824 -18.150445 -25.510382
RightArm 20.903717 29.184324 38.605647
RightForeArm -9.074151 -0.000000 10.279529
RightHand 6.237493 -0.000000 11.816086
RightHandThumb1 -24.326973 -0.000000 -32.862282
LeftShoulder -25.050718 8.398237 28.993156
LeftArm 15.309180 -27.488058 -34.893028
LeftForeArm 29.621650 -0.000000 2.556527
LeftHand -6.612085 0.000000 -9.029832
LeftHandThumb1 -26.253704 0.000000 33.147579
Head -1.603608 3.790246 -0.360447
107
root -2.854661 33.186520 -0.471453 7.556296 -1.643320 2.790385
RightUpLeg -0.940147 -7.627423 -2.085700
RightLeg -0.722312 -0.000000 0.000000
RightFoot -11.037966 -2.761276 3.795822
RightToeBase 5.754049 -0.000000 -0.000000
LeftUpLeg -1.309873 4.633226 0.801402
LeftLeg 1.185168 -0.000000 -0.000000
LeftFoot -10.133166 1.235261 -10.145065
LeftToeBase 7.447956 -0.000000 -0.000000
Spine -8.606852 -1.913853 -1.584576
RightShoulder -19.482852 -18.157753 -25.500667
RightArm 20.912276 29.219211 38.612324
RightForeArm -9.111666 -0.000000 10.286388
RightHand 6.261991 -0.000000 11.804525
RightHandThumb1 -24.326973 -0.000000 -32.862282
LeftShoulder -25.057153 8.389186 28.981946
LeftArm 15.297819 -27.548762 -34.910674
LeftForeArm 29.699591 0.000000 2.583571
LeftHand -6.618886 -0.000000 -9.068000
LeftHandThumb1 -26.253704 0.000000 33.147579
Head -1.599010 3.770273 -0.365650
